<?xml version="1.0" encoding="UTF-8" standalone="no"?>
<!-- Created with Inkscape (http://www.inkscape.org/) -->

<svg
   xmlns:dc="http://purl.org/dc/elements/1.1/"
   xmlns:cc="http://creativecommons.org/ns#"
   xmlns:rdf="http://www.w3.org/1999/02/22-rdf-syntax-ns#"
   xmlns:svg="http://www.w3.org/2000/svg"
   xmlns="http://www.w3.org/2000/svg"
   xmlns:sodipodi="http://sodipodi.sourceforge.net/DTD/sodipodi-0.dtd"
   xmlns:inkscape="http://www.inkscape.org/namespaces/inkscape"
   width="200mm"
   height="200mm"
   viewBox="0 0 200 200"
   version="1.1"
   id="svg8"
   inkscape:version="0.92.2 2405546, 2018-03-11"
   sodipodi:docname="gear.svg">
  <defs
     id="defs2" />
  <sodipodi:namedview
     id="base"
     pagecolor="#ffffff"
     bordercolor="#666666"
     borderopacity="1.0"
     inkscape:pageopacity="0.0"
     inkscape:pageshadow="2"
     inkscape:zoom="0.7"
     inkscape:cx="331.63654"
     inkscape:cy="553.58104"
     inkscape:document-units="mm"
     inkscape:current-layer="layer1"
     showgrid="false"
     inkscape:pagecheckerboard="true"
     inkscape:window-width="1920"
     inkscape:window-height="1046"
     inkscape:window-x="0"
     inkscape:window-y="0"
     inkscape:window-maximized="1" />
  <metadata
     id="metadata5">
    <rdf:RDF>
      <cc:Work
         rdf:about="">
        <dc:format>image/svg+xml</dc:format>
        <dc:type
           rdf:resource="http://purl.org/dc/dcmitype/StillImage" />
        <dc:title></dc:title>
      </cc:Work>
    </rdf:RDF>
  </metadata>
  <g
     inkscape:label="Layer 1"
     inkscape:groupmode="layer"
     id="layer1"
     transform="translate(0,-97)">
    <path
       d="m 154.64813,154.67095 c -2.54009,-3.16501 -5.52218,-6.24243 -8.94434,-9.23584 2.71875,-11.03678 3.06038,-10.41082 6.50728,-24.9995 -10.51316,-4.84381 -23.72136,-10.55782 -32.86067,-14.56467 l -12.67397,22.86375 c -3.70103,-0.37183 -7.624898,-0.43952 -11.779248,-0.20814 -3.806105,-7.05078 -7.38505,-13.55715 -12.160142,-22.19227 -10.069859,3.40794 -23.847808,8.4226 -32.914888,11.97094 3.599614,18.53652 3.652539,17.82828 5.507167,25.70031 -3.091413,2.51126 -5.944573,5.27354 -8.580018,8.2982 -10.058525,-3.10725 -10.016001,-3.06968 -23.339538,-6.7613 -6.650138,15.20092 -9.12512,20.95998 -14.1678702,32.48661 9.8035722,6.27067 14.6962532,9.30677 20.3322812,13.09883 -0.528807,4.19154 -0.639881,8.22151 -0.337505,12.08829 -7.572721,4.79315 -13.591369,8.74236 -21.2911112,13.66162 4.9700372,12.45901 8.6153432,21.41223 11.8438312,30.2645 2.802774,-0.44137 23.141398,-4.41615 24.736244,-4.54373 2.491217,3.26905 5.488355,6.38488 8.983841,9.34154 -5.677674,23.01785 0,0 -5.677674,23.01785 31.11235,14.07706 0,0 31.11235,14.07706 6.288416,-9.14375 6.927358,-10.28128 13.593885,-20.39634 3.701041,0.37183 7.624875,0.43952 11.779075,0.20776 8.13717,12.64744 6.79007,10.77161 13.51575,21.41845 16.35758,-5.77429 14.47455,-5.09867 31.05386,-11.24266 -2.29815,-12.28283 -3.05126,-15.33991 -5.00284,-25.65387 3.09144,-2.51131 5.95807,-5.27885 8.57961,-8.29802 11.43614,2.86799 14.04435,3.27893 23.64497,5.95235 7.64512,-17.09268 7.59187,-17.38543 13.85236,-32.16133 -11.91817,-7.4109 -13.76395,-8.66439 -20.38077,-12.72146 0.41256,-3.36799 0.54291,-7.36068 0.3826,-11.97673 12.58075,-7.99791 10.63726,-6.76578 21.29336,-13.66296 -5.69455,-14.18998 -4.17641,-11.03336 -11.82937,-30.26173 -14.37547,2.8059 -10.94108,2.19747 -24.77797,4.4323 z m -26.66404,56.43374 c -3.42903,7.84086 -9.12708,13.32022 -17.09252,16.43745 -7.96545,3.11723 -15.867269,2.96053 -23.709162,-0.46991 -7.839234,-3.42966 -13.317951,-9.12612 -16.435176,-17.09155 -3.117229,-7.96546 -2.960718,-15.86765 0.468309,-23.70852 3.431162,-7.84026 9.128812,-13.31948 17.093039,-16.43622 7.965442,-3.11725 15.86886,-2.96119 23.70869,0.46864 7.83967,3.4309 13.31856,9.12775 16.43578,17.09319 3.11721,7.96548 2.96059,15.86728 -0.46902,23.7069"
       id="path833"
       style="fill:none;stroke:#ffffff;stroke-width:6.66083813;stroke-miterlimit:4;stroke-dasharray:none;stroke-opacity:1"
       inkscape:connector-curvature="0"
       sodipodi:nodetypes="ccccccccccccccccccccccccccccccccccssscscsc" />
  </g>
</svg>
